<svg xmlns="http://www.w3.org/2000/svg" viewBox="0 0 800 390" width="800" height="390">
  <defs>
    <linearGradient id="featBg" x1="0%" y1="0%" x2="100%" y2="100%">
      <stop offset="0%" style="stop-color:#0d1117;stop-opacity:1" />
      <stop offset="100%" style="stop-color:#161b22;stop-opacity:1" />
    </linearGradient>
    <linearGradient id="featAccent" x1="0%" y1="0%" x2="100%" y2="0%">
      <stop offset="0%" style="stop-color:#7209b7;stop-opacity:1" />
      <stop offset="100%" style="stop-color:#560bad;stop-opacity:1" />
    </linearGradient>
  </defs>
  <rect width="800" height="390" fill="url(#featBg)" rx="12"/>
  <text x="400" y="38" font-family="Segoe UI,Arial,sans-serif" font-size="20" fill="#ffffff" text-anchor="middle" font-weight="bold">Key Features</text>
  <rect x="300" y="48" width="200" height="3" fill="url(#featAccent)" rx="2"/>
  
  <rect x="30" y="65" width="235" height="130" rx="10" fill="#161b22" stroke="#7209b7" stroke-width="1.5"/>
  <text x="50" y="95" font-family="Segoe UI,Arial,sans-serif" font-size="20">⚡</text>
  <text x="78" y="97" font-family="Segoe UI,Arial,sans-serif" font-size="13" fill="#ffffff" font-weight="bold">18 HIPAA Identifiers</text>
  <text x="45" y="123" font-family="Segoe UI,Arial,sans-serif" font-size="11" fill="#8b949e">Targets all Safe Harbor identifier typ</text>
  <text x="45" y="140" font-family="Segoe UI,Arial,sans-serif" font-size="11" fill="#8b949e">es: names, dates, SSNs, addresses, and</text>
  <text x="45" y="157" font-family="Segoe UI,Arial,sans-serif" font-size="11" fill="#8b949e"> more</text>
  <rect x="30" y="185" width="235" height="10" rx="0" ry="5" fill="#7209b7" opacity="0.15"/>
  <rect x="285" y="65" width="235" height="130" rx="10" fill="#161b22" stroke="#7209b7" stroke-width="1.5"/>
  <text x="305" y="95" font-family="Segoe UI,Arial,sans-serif" font-size="20">🔍</text>
  <text x="333" y="97" font-family="Segoe UI,Arial,sans-serif" font-size="13" fill="#ffffff" font-weight="bold">Configurable Regex Rules</text>
  <text x="300" y="123" font-family="Segoe UI,Arial,sans-serif" font-size="11" fill="#8b949e">9 toggleable detection rules: SSN, pho</text>
  <text x="300" y="140" font-family="Segoe UI,Arial,sans-serif" font-size="11" fill="#8b949e">ne, email, dates, MRN, IP, URL, zip co</text>
  <text x="300" y="157" font-family="Segoe UI,Arial,sans-serif" font-size="11" fill="#8b949e">des</text>
  <rect x="285" y="185" width="235" height="10" rx="0" ry="5" fill="#7209b7" opacity="0.15"/>
  <rect x="540" y="65" width="235" height="130" rx="10" fill="#161b22" stroke="#7209b7" stroke-width="1.5"/>
  <text x="560" y="95" font-family="Segoe UI,Arial,sans-serif" font-size="20">📊</text>
  <text x="588" y="97" font-family="Segoe UI,Arial,sans-serif" font-size="13" fill="#ffffff" font-weight="bold">Dual-Layer Pipeline</text>
  <text x="555" y="123" font-family="Segoe UI,Arial,sans-serif" font-size="11" fill="#8b949e">Step 1: Regex preprocessing catches kn</text>
  <text x="555" y="140" font-family="Segoe UI,Arial,sans-serif" font-size="11" fill="#8b949e">own patterns; Step 2: LLM catches rema</text>
  <text x="555" y="157" font-family="Segoe UI,Arial,sans-serif" font-size="11" fill="#8b949e">ining PHI</text>
  <rect x="540" y="185" width="235" height="10" rx="0" ry="5" fill="#7209b7" opacity="0.15"/>
  <rect x="30" y="220" width="235" height="130" rx="10" fill="#161b22" stroke="#7209b7" stroke-width="1.5"/>
  <text x="50" y="250" font-family="Segoe UI,Arial,sans-serif" font-size="20">🔄</text>
  <text x="78" y="252" font-family="Segoe UI,Arial,sans-serif" font-size="13" fill="#ffffff" font-weight="bold">Audit Logging</text>
  <text x="45" y="278" font-family="Segoe UI,Arial,sans-serif" font-size="11" fill="#8b949e">Complete audit trail tracking operatio</text>
  <text x="45" y="295" font-family="Segoe UI,Arial,sans-serif" font-size="11" fill="#8b949e">ns, PII counts, status, and types dete</text>
  <text x="45" y="312" font-family="Segoe UI,Arial,sans-serif" font-size="11" fill="#8b949e">cted</text>
  <rect x="30" y="340" width="235" height="10" rx="0" ry="5" fill="#7209b7" opacity="0.15"/>
  <rect x="285" y="220" width="235" height="130" rx="10" fill="#161b22" stroke="#7209b7" stroke-width="1.5"/>
  <text x="305" y="250" font-family="Segoe UI,Arial,sans-serif" font-size="20">🛡️</text>
  <text x="333" y="252" font-family="Segoe UI,Arial,sans-serif" font-size="13" fill="#ffffff" font-weight="bold">Validation Reports</text>
  <text x="300" y="278" font-family="Segoe UI,Arial,sans-serif" font-size="11" fill="#8b949e">Verify completeness of de-identificati</text>
  <text x="300" y="295" font-family="Segoe UI,Arial,sans-serif" font-size="11" fill="#8b949e">on with detailed validation checks</text>
  <text x="300" y="312" font-family="Segoe UI,Arial,sans-serif" font-size="11" fill="#8b949e"></text>
  <rect x="285" y="340" width="235" height="10" rx="0" ry="5" fill="#7209b7" opacity="0.15"/>
  <rect x="540" y="220" width="235" height="130" rx="10" fill="#161b22" stroke="#7209b7" stroke-width="1.5"/>
  <text x="560" y="250" font-family="Segoe UI,Arial,sans-serif" font-size="20">📋</text>
  <text x="588" y="252" font-family="Segoe UI,Arial,sans-serif" font-size="13" fill="#ffffff" font-weight="bold">Batch Processing</text>
  <text x="555" y="278" font-family="Segoe UI,Arial,sans-serif" font-size="11" fill="#8b949e">Process entire directories with file p</text>
  <text x="555" y="295" font-family="Segoe UI,Arial,sans-serif" font-size="11" fill="#8b949e">attern matching and output organizatio</text>
  <text x="555" y="312" font-family="Segoe UI,Arial,sans-serif" font-size="11" fill="#8b949e">n</text>
  <rect x="540" y="340" width="235" height="10" rx="0" ry="5" fill="#7209b7" opacity="0.15"/>
</svg>